<!DOCTYPE svg PUBLIC "-//W3C//DTD SVG 20010904//EN" "http://www.w3.org/TR/2001/REC-SVG-20010904/DTD/svg10.dtd">
<svg version="1.0" xmlns="http://www.w3.org/2000/svg" width="500px" height="500px" viewBox="0 0 5000 5000" preserveAspectRatio="xMidYMid meet">
<g id="layer101" fill="#545454" stroke="none">
 <path d="M0 2500 l0 -2500 2500 0 2500 0 0 2500 0 2500 -2500 0 -2500 0 0 -2500z"/>
 </g>
<g id="layer102" fill="#55716e" stroke="none">
 <path d="M663 3460 c-142 -29 -225 -118 -253 -269 -9 -51 -7 -106 11 -310 12 -135 19 -260 15 -275 -11 -44 -66 -93 -112 -101 -120 -18 -119 -18 -119 -50 0 -29 2 -30 58 -37 73 -9 135 -43 161 -87 20 -34 20 -34 -3 -325 -19 -239 -20 -299 -11 -338 24 -94 132 -180 258 -207 73 -15 117 -14 133 5 21 25 -2 48 -55 56 -112 16 -176 100 -176 233 0 28 12 152 27 277 22 192 24 234 14 268 -16 54 -66 108 -124 136 l-49 22 38 12 c58 19 111 74 130 135 16 50 16 63 -10 311 -14 142 -26 276 -26 297 0 80 78 169 159 182 81 13 82 14 79 43 -3 25 -7 27 -53 29 -27 1 -69 -3 -92 -7z"/>
 <path d="M3587 3463 c-4 -3 -7 -17 -7 -29 0 -24 4 -26 80 -38 90 -15 150 -93 157 -204 3 -39 -6 -156 -21 -280 -29 -240 -30 -252 -16 -304 15 -51 53 -94 112 -124 l50 -25 -51 -25 c-59 -30 -83 -57 -107 -121 -17 -44 -17 -54 9 -317 15 -149 27 -284 27 -299 0 -71 -83 -160 -159 -172 -81 -13 -82 -14 -79 -43 3 -27 3 -27 78 -25 180 4 292 100 320 277 8 51 6 110 -10 278 -11 117 -20 231 -20 253 0 90 56 140 172 153 59 7 63 9 66 34 3 22 -2 30 -23 38 -14 5 -41 10 -58 10 -47 0 -117 41 -141 83 l-21 35 23 299 c23 303 23 324 -11 390 -34 64 -136 131 -235 152 -59 12 -125 15 -135 4z"/>
 <path d="M4570 3229 c-90 -36 -127 -146 -77 -233 58 -104 206 -108 274 -6 31 45 32 129 2 177 -38 60 -130 89 -199 62z"/>
 <path d="M2040 2959 c-161 -23 -290 -124 -313 -246 -4 -22 -2 -33 9 -37 8 -3 16 0 18 7 2 6 9 32 16 57 16 61 88 130 166 160 81 31 211 38 290 15 145 -41 227 -137 228 -265 0 -50 -5 -75 -24 -108 -43 -76 -112 -105 -303 -127 -197 -23 -256 -40 -316 -91 -103 -86 -105 -267 -6 -373 177 -189 553 -144 635 76 11 30 18 58 16 61 -10 9 -36 -8 -36 -23 0 -9 -9 -33 -20 -54 -57 -112 -234 -174 -393 -137 -110 26 -179 73 -219 150 -30 57 -30 165 0 223 42 81 101 105 320 133 178 23 248 42 297 83 73 60 103 177 71 275 -50 148 -246 248 -436 221z"/>
 <path d="M3028 2950 c-80 -14 -145 -40 -208 -81 -297 -199 -335 -622 -77 -866 169 -160 400 -195 608 -91 78 39 187 145 223 215 30 61 31 63 11 63 -8 0 -23 -17 -34 -37 -132 -259 -476 -345 -720 -182 -268 179 -309 568 -83 793 110 109 189 146 328 154 106 5 172 -7 258 -50 74 -37 169 -126 208 -195 17 -29 37 -53 45 -53 19 0 13 16 -30 89 -60 100 -194 199 -312 229 -60 16 -164 22 -217 12z"/>
 <path d="M769 2903 c324 -821 424 -1063 439 -1063 13 0 68 128 235 548 119 301 217 551 217 555 0 4 -6 7 -14 7 -9 0 -42 -68 -87 -180 l-74 -180 -278 3 -279 2 -71 177 c-54 134 -76 178 -89 178 -17 0 -17 -3 1 -47z m698 -355 c-3 -7 -60 -155 -127 -328 -68 -173 -126 -318 -129 -322 -6 -7 -261 635 -261 655 0 4 117 7 261 7 205 0 260 -3 256 -12z"/>
 </g>
<g id="layer103" fill="#56837e" stroke="none">
 <path d="M663 3460 c-142 -29 -225 -118 -253 -269 -9 -51 -7 -106 11 -310 12 -135 19 -260 15 -275 -11 -44 -66 -93 -112 -101 -120 -18 -119 -18 -119 -50 0 -29 2 -30 58 -37 73 -9 135 -43 161 -87 20 -34 20 -34 -3 -325 -19 -239 -20 -299 -11 -338 24 -94 132 -180 258 -207 73 -15 117 -14 133 5 21 25 -2 48 -55 56 -112 16 -176 100 -176 233 0 28 12 152 27 277 22 192 24 234 14 268 -16 54 -66 108 -124 136 l-49 22 38 12 c58 19 111 74 130 135 16 50 16 63 -10 311 -14 142 -26 276 -26 297 0 80 78 169 159 182 81 13 82 14 79 43 -3 25 -7 27 -53 29 -27 1 -69 -3 -92 -7z"/>
 <path d="M3587 3463 c-4 -3 -7 -17 -7 -29 0 -24 4 -26 80 -38 90 -15 150 -93 157 -204 3 -39 -6 -156 -21 -280 -29 -240 -30 -252 -16 -304 15 -51 53 -94 112 -124 l50 -25 -51 -25 c-59 -30 -83 -57 -107 -121 -17 -44 -17 -54 9 -317 15 -149 27 -284 27 -299 0 -71 -83 -160 -159 -172 -81 -13 -82 -14 -79 -43 3 -27 3 -27 78 -25 180 4 292 100 320 277 8 51 6 110 -10 278 -11 117 -20 231 -20 253 0 90 56 140 172 153 59 7 63 9 66 34 3 22 -2 30 -23 38 -14 5 -41 10 -58 10 -47 0 -117 41 -141 83 l-21 35 23 299 c23 303 23 324 -11 390 -34 64 -136 131 -235 152 -59 12 -125 15 -135 4z"/>
 <path d="M4570 3229 c-90 -36 -127 -146 -77 -233 58 -104 206 -108 274 -6 31 45 32 129 2 177 -38 60 -130 89 -199 62z"/>
 <path d="M1988 2950 c-103 -26 -212 -109 -243 -184 -23 -58 -27 -86 -10 -86 8 0 18 12 21 28 56 233 440 306 628 119 77 -77 95 -191 45 -288 -37 -73 -99 -99 -292 -124 -266 -34 -339 -66 -381 -166 -79 -190 45 -372 279 -411 165 -28 350 54 400 176 25 62 27 76 11 76 -9 0 -20 -16 -27 -40 -61 -203 -415 -255 -584 -86 -70 70 -89 142 -63 243 26 107 113 149 362 178 267 31 349 94 350 265 1 65 -3 82 -29 129 -36 65 -104 121 -182 152 -65 25 -220 35 -285 19z"/>
 <path d="M3075 2953 c-332 -28 -566 -349 -490 -672 45 -188 188 -346 364 -402 98 -31 233 -30 327 3 128 45 229 128 295 243 32 56 35 65 17 65 -7 0 -26 -24 -42 -53 -70 -124 -217 -225 -364 -247 -300 -47 -583 201 -582 510 1 294 223 521 512 521 178 0 341 -94 433 -250 17 -28 36 -51 43 -51 17 0 15 7 -15 59 -65 113 -163 197 -281 241 -57 22 -161 37 -217 33z"/>
 <path d="M784 2868 c305 -775 410 -1028 425 -1028 12 0 69 135 228 538 254 641 228 572 211 572 -10 0 -41 -62 -89 -180 l-74 -180 -279 2 -278 3 -72 175 c-48 117 -77 176 -89 178 -13 3 -11 -11 17 -80z m681 -325 c-95 -251 -249 -640 -254 -646 -7 -7 -262 635 -261 656 0 4 117 7 261 7 245 0 261 -1 254 -17z"/>
 </g>
<g id="layer104" fill="#57958d" stroke="none">
 <path d="M663 3460 c-142 -29 -225 -118 -253 -269 -9 -51 -7 -106 11 -310 12 -135 19 -260 15 -275 -11 -44 -66 -93 -112 -101 -120 -18 -119 -18 -119 -50 0 -29 2 -30 58 -37 73 -9 135 -43 161 -87 20 -34 20 -34 -3 -325 -19 -239 -20 -299 -11 -338 24 -94 132 -180 258 -207 73 -15 117 -14 133 5 21 25 -2 48 -55 56 -112 16 -176 100 -176 233 0 28 12 152 27 277 22 192 24 234 14 268 -16 54 -66 108 -124 136 l-49 22 38 12 c58 19 111 74 130 135 16 50 16 63 -10 311 -14 142 -26 276 -26 297 0 80 78 169 159 182 81 13 82 14 79 43 -3 25 -7 27 -53 29 -27 1 -69 -3 -92 -7z"/>
 <path d="M3587 3463 c-4 -3 -7 -17 -7 -29 0 -24 4 -26 80 -38 90 -15 150 -93 157 -204 3 -39 -6 -156 -21 -280 -29 -240 -30 -252 -16 -304 15 -51 53 -94 112 -124 l50 -25 -51 -25 c-59 -30 -83 -57 -107 -121 -17 -44 -17 -54 9 -317 15 -149 27 -284 27 -299 0 -71 -83 -160 -159 -172 -81 -13 -82 -14 -79 -43 3 -27 3 -27 78 -25 180 4 292 100 320 277 8 51 6 110 -10 278 -11 117 -20 231 -20 253 0 90 56 140 172 153 59 7 63 9 66 34 3 22 -2 30 -23 38 -14 5 -41 10 -58 10 -47 0 -117 41 -141 83 l-21 35 23 299 c23 303 23 324 -11 390 -34 64 -136 131 -235 152 -59 12 -125 15 -135 4z"/>
 <path d="M4570 3229 c-90 -36 -127 -146 -77 -233 58 -104 206 -108 274 -6 31 45 32 129 2 177 -38 60 -130 89 -199 62z"/>
 <path d="M2000 2953 c-82 -16 -199 -92 -239 -156 -28 -46 -43 -117 -25 -117 8 0 18 19 25 45 34 136 233 235 409 205 206 -36 318 -170 280 -337 -15 -68 -66 -123 -136 -147 -27 -9 -120 -26 -207 -37 -231 -29 -302 -61 -348 -156 -31 -65 -31 -170 0 -235 94 -194 429 -245 609 -93 36 30 82 112 82 145 0 35 -19 22 -32 -22 -17 -59 -98 -139 -163 -162 -285 -98 -564 97 -480 335 35 99 102 132 324 160 185 23 243 38 298 78 74 53 108 165 79 263 -42 145 -193 240 -374 237 -43 -1 -88 -4 -102 -6z"/>
 <path d="M973 2395 c167 -421 224 -555 236 -553 10 2 88 187 228 538 247 620 228 570 211 570 -9 0 -43 -71 -88 -180 l-74 -180 -280 2 -279 3 -72 175 c-45 111 -77 176 -87 178 -11 2 49 -161 205 -553z m497 161 c0 -3 -228 -592 -258 -665 -3 -9 -15 9 -28 45 -12 32 -72 186 -132 342 l-110 282 264 0 c145 0 264 -2 264 -4z"/>
 <path d="M2950 2927 c-171 -58 -284 -170 -347 -344 -83 -228 9 -503 214 -639 207 -137 488 -109 664 67 47 47 119 151 119 173 0 3 -6 6 -12 6 -7 0 -29 -28 -48 -61 -72 -127 -212 -218 -367 -241 -143 -21 -290 25 -397 123 -300 274 -201 763 181 890 90 30 211 30 304 0 120 -38 226 -125 290 -238 13 -24 30 -43 37 -43 19 0 15 13 -28 78 -77 120 -189 204 -315 237 -88 23 -216 19 -295 -8z"/>
 </g>
<g id="layer105" fill="#58a59c" stroke="none">
 <path d="M663 3460 c-142 -29 -225 -118 -253 -269 -9 -51 -7 -106 11 -310 12 -135 19 -260 15 -275 -11 -44 -66 -93 -112 -101 -120 -18 -119 -18 -119 -50 0 -29 2 -30 58 -37 73 -9 135 -43 161 -87 20 -34 20 -34 -3 -325 -19 -239 -20 -299 -11 -338 24 -94 132 -180 258 -207 73 -15 117 -14 133 5 21 25 -2 48 -55 56 -112 16 -176 100 -176 233 0 28 12 152 27 277 22 192 24 234 14 268 -16 54 -66 108 -124 136 l-49 22 38 12 c58 19 111 74 130 135 16 50 16 63 -10 311 -14 142 -26 276 -26 297 0 80 78 169 159 182 81 13 82 14 79 43 -3 25 -7 27 -53 29 -27 1 -69 -3 -92 -7z"/>
 <path d="M3587 3463 c-4 -3 -7 -17 -7 -29 0 -24 4 -26 80 -38 90 -15 150 -93 157 -204 3 -39 -6 -156 -21 -280 -29 -240 -30 -252 -16 -304 15 -51 53 -94 112 -124 l50 -25 -51 -25 c-59 -30 -83 -57 -107 -121 -17 -44 -17 -54 9 -317 15 -149 27 -284 27 -299 0 -71 -83 -160 -159 -172 -81 -13 -82 -14 -79 -43 3 -27 3 -27 78 -25 180 4 292 100 320 277 8 51 6 110 -10 278 -11 117 -20 231 -20 253 0 90 56 140 172 153 59 7 63 9 66 34 3 22 -2 30 -23 38 -14 5 -41 10 -58 10 -47 0 -117 41 -141 83 l-21 35 23 299 c23 303 23 324 -11 390 -34 64 -136 131 -235 152 -59 12 -125 15 -135 4z"/>
 <path d="M4570 3229 c-90 -36 -127 -146 -77 -233 58 -104 206 -108 274 -6 31 45 32 129 2 177 -38 60 -130 89 -199 62z"/>
 <path d="M1983 2945 c-112 -31 -192 -90 -229 -170 -24 -51 -31 -95 -15 -95 5 0 14 21 20 46 15 59 82 132 154 167 192 94 447 26 523 -138 38 -81 29 -184 -23 -245 -49 -59 -114 -80 -323 -105 -146 -17 -206 -33 -262 -70 -88 -58 -117 -215 -60 -326 53 -106 180 -170 334 -170 98 0 168 19 234 64 52 34 100 102 110 155 10 49 -9 38 -28 -16 -36 -102 -144 -170 -284 -179 -121 -9 -229 26 -299 95 -50 50 -66 84 -72 151 -12 131 48 214 182 250 22 5 100 17 174 26 222 27 298 61 341 151 31 63 32 161 3 226 -67 150 -289 234 -480 183z"/>
 <path d="M760 2943 c0 -4 98 -254 217 -556 153 -384 222 -547 232 -545 8 2 104 230 232 553 121 302 219 551 219 552 0 2 -6 3 -12 3 -7 0 -46 -81 -87 -180 l-74 -180 -281 2 -281 3 -71 175 c-40 96 -77 176 -83 178 -6 2 -11 0 -11 -5z m710 -389 c0 -10 -252 -658 -260 -666 -3 -5 -59 130 -125 300 -65 169 -124 322 -132 340 l-13 32 265 0 c146 0 265 -3 265 -6z"/>
 <path d="M2973 2935 c-269 -73 -446 -363 -389 -635 44 -207 188 -366 385 -424 32 -9 91 -16 141 -16 188 0 344 87 450 252 43 65 47 78 27 78 -6 0 -23 -21 -37 -46 -53 -101 -165 -196 -276 -234 -186 -64 -377 -19 -520 124 -109 109 -153 216 -154 371 0 146 47 261 151 367 156 160 376 199 577 102 86 -41 182 -131 222 -206 14 -27 31 -48 38 -48 27 0 -50 120 -118 184 -108 101 -221 146 -365 145 -44 0 -104 -7 -132 -14z"/>
 </g>
<g id="layer106" fill="#59b5aa" stroke="none">
 <path d="M663 3460 c-142 -29 -225 -118 -253 -269 -9 -51 -7 -106 11 -310 12 -135 19 -260 15 -275 -11 -44 -66 -93 -112 -101 -120 -18 -119 -18 -119 -50 0 -29 2 -30 58 -37 73 -9 135 -43 161 -87 20 -34 20 -34 -3 -325 -19 -239 -20 -299 -11 -338 24 -94 132 -180 258 -207 73 -15 117 -14 133 5 21 25 -2 48 -55 56 -112 16 -176 100 -176 233 0 28 12 152 27 277 22 192 24 234 14 268 -16 54 -66 108 -124 136 l-49 22 38 12 c58 19 111 74 130 135 16 50 16 63 -10 311 -14 142 -26 276 -26 297 0 80 78 169 159 182 81 13 82 14 79 43 -3 25 -7 27 -53 29 -27 1 -69 -3 -92 -7z"/>
 <path d="M3587 3463 c-4 -3 -7 -17 -7 -29 0 -24 4 -26 80 -38 90 -15 150 -93 157 -204 3 -39 -6 -156 -21 -280 -29 -240 -30 -252 -16 -304 15 -51 53 -94 112 -124 l50 -25 -51 -25 c-59 -30 -83 -57 -107 -121 -17 -44 -17 -54 9 -317 15 -149 27 -284 27 -299 0 -71 -83 -160 -159 -172 -81 -13 -82 -14 -79 -43 3 -27 3 -27 78 -25 180 4 292 100 320 277 8 51 6 110 -10 278 -11 117 -20 231 -20 253 0 90 56 140 172 153 59 7 63 9 66 34 3 22 -2 30 -23 38 -14 5 -41 10 -58 10 -47 0 -117 41 -141 83 l-21 35 23 299 c23 303 23 324 -11 390 -34 64 -136 131 -235 152 -59 12 -125 15 -135 4z"/>
 <path d="M4570 3229 c-90 -36 -127 -146 -77 -233 58 -104 206 -108 274 -6 31 45 32 129 2 177 -38 60 -130 89 -199 62z"/>
 <path d="M1982 2944 c-66 -17 -106 -38 -159 -80 -43 -35 -93 -121 -93 -161 0 -35 17 -27 24 11 9 46 59 118 105 150 164 114 415 91 538 -48 45 -51 63 -101 63 -172 -1 -90 -45 -156 -130 -193 -44 -19 -72 -24 -304 -56 -206 -28 -278 -91 -284 -249 -3 -73 -1 -86 25 -136 37 -69 104 -121 195 -151 57 -18 84 -21 166 -17 107 5 165 25 232 78 38 30 90 118 90 152 0 33 -15 18 -33 -32 -38 -105 -140 -169 -286 -178 -174 -10 -313 64 -360 191 -17 44 -13 137 8 182 43 97 114 126 371 155 188 22 261 56 305 143 19 40 25 66 25 119 0 83 -15 122 -71 183 -96 104 -276 150 -427 109z"/>
 <path d="M762 2938 c1 -9 100 -259 218 -557 147 -369 219 -540 228 -539 14 3 455 1098 446 1107 -10 10 -25 -20 -96 -189 l-73 -175 -278 0 -279 0 -73 180 c-40 99 -79 181 -85 183 -7 3 -10 -2 -8 -10z m706 -395 c-9 -33 -250 -648 -257 -656 -4 -4 -58 124 -121 285 -62 161 -121 314 -131 341 l-19 47 266 0 c249 0 266 -1 262 -17z"/>
 <path d="M2983 2936 c-260 -63 -441 -335 -403 -605 53 -372 433 -579 767 -415 77 37 183 140 223 215 20 37 27 60 19 57 -8 -2 -25 -24 -38 -49 -40 -71 -147 -172 -221 -206 -242 -114 -503 -37 -652 191 -107 165 -107 396 0 562 112 173 321 269 512 235 143 -26 282 -121 350 -240 44 -76 72 -83 34 -8 -36 70 -154 187 -224 220 -114 55 -251 71 -367 43z"/>
 </g>
<g id="layer107" fill="#5ac9bb" stroke="none">
 <path d="M663 3460 c-142 -29 -225 -118 -253 -269 -9 -51 -7 -106 11 -310 12 -135 19 -260 15 -275 -11 -44 -66 -93 -112 -101 -120 -18 -119 -18 -119 -50 0 -29 2 -30 58 -37 73 -9 135 -43 161 -87 20 -34 20 -34 -3 -325 -19 -239 -20 -299 -11 -338 24 -94 132 -180 258 -207 73 -15 117 -14 133 5 21 25 -2 48 -55 56 -112 16 -176 100 -176 233 0 28 12 152 27 277 22 192 24 234 14 268 -16 54 -66 108 -124 136 l-49 22 38 12 c58 19 111 74 130 135 16 50 16 63 -10 311 -14 142 -26 276 -26 297 0 80 78 169 159 182 81 13 82 14 79 43 -3 25 -7 27 -53 29 -27 1 -69 -3 -92 -7z"/>
 <path d="M3587 3463 c-4 -3 -7 -17 -7 -29 0 -24 4 -26 80 -38 90 -15 150 -93 157 -204 3 -39 -6 -156 -21 -280 -29 -240 -30 -252 -16 -304 15 -51 53 -94 112 -124 l50 -25 -51 -25 c-59 -30 -83 -57 -107 -121 -17 -44 -17 -54 9 -317 15 -149 27 -284 27 -299 0 -71 -83 -160 -159 -172 -81 -13 -82 -14 -79 -43 3 -27 3 -27 78 -25 180 4 292 100 320 277 8 51 6 110 -10 278 -11 117 -20 231 -20 253 0 90 56 140 172 153 59 7 63 9 66 34 3 22 -2 30 -23 38 -14 5 -41 10 -58 10 -47 0 -117 41 -141 83 l-21 35 23 299 c23 303 23 324 -11 390 -34 64 -136 131 -235 152 -59 12 -125 15 -135 4z"/>
 <path d="M4570 3229 c-90 -36 -127 -146 -77 -233 58 -104 206 -108 274 -6 31 45 32 129 2 177 -38 60 -130 89 -199 62z"/>
 <path d="M1990 2944 c-67 -18 -129 -48 -174 -86 -37 -31 -86 -118 -86 -155 0 -38 15 -26 28 21 58 217 423 289 611 120 65 -58 91 -113 91 -190 -1 -111 -60 -187 -169 -218 -31 -8 -114 -22 -186 -31 -150 -17 -193 -28 -255 -61 -97 -53 -137 -182 -94 -307 82 -242 544 -267 668 -37 19 35 30 90 18 90 -5 0 -12 -13 -15 -28 -3 -15 -21 -50 -39 -77 -26 -39 -48 -58 -101 -84 -60 -31 -79 -36 -161 -39 -158 -7 -270 42 -333 148 -28 47 -33 63 -33 120 0 79 23 133 73 177 48 42 107 58 302 83 216 28 283 59 326 154 22 48 25 139 7 198 -17 58 -88 132 -161 168 -103 50 -212 62 -317 34z"/>
 <path d="M760 2943 c2 -24 437 -1097 447 -1100 9 -3 122 272 434 1060 13 34 16 48 7 45 -7 -3 -46 -86 -88 -186 l-74 -182 -280 2 -279 3 -75 183 c-41 100 -78 182 -83 182 -5 0 -9 -3 -9 -7z m594 -700 c-153 -394 -144 -371 -154 -353 -4 8 -63 157 -130 330 -67 173 -124 321 -127 328 -4 9 53 12 265 12 l270 0 -124 -317z"/>
 <path d="M3020 2943 c-250 -42 -441 -272 -441 -532 0 -138 32 -238 109 -340 154 -203 419 -268 652 -158 80 37 195 148 234 225 36 70 18 66 -27 -7 -44 -70 -134 -155 -203 -193 -335 -181 -749 78 -747 467 1 156 59 285 177 392 203 185 499 174 696 -26 36 -36 74 -85 84 -109 10 -23 25 -42 33 -42 26 0 -38 101 -107 171 -121 123 -294 180 -460 152z"/>
 </g>
<g id="layer108" fill="#fe7373" stroke="none">
 <path d="M663 3460 c-142 -29 -225 -118 -253 -269 -9 -51 -7 -106 11 -310 12 -135 19 -260 15 -275 -11 -44 -66 -93 -112 -101 -120 -18 -119 -18 -119 -50 0 -29 2 -30 58 -37 73 -9 135 -43 161 -87 20 -34 20 -34 -3 -325 -19 -239 -20 -299 -11 -338 24 -94 132 -180 258 -207 73 -15 117 -14 133 5 21 25 -2 48 -55 56 -112 16 -176 100 -176 233 0 28 12 152 27 277 22 192 24 234 14 268 -16 54 -66 108 -124 136 l-49 22 38 12 c58 19 111 74 130 135 16 50 16 63 -10 311 -14 142 -26 276 -26 297 0 80 78 169 159 182 81 13 82 14 79 43 -3 25 -7 27 -53 29 -27 1 -69 -3 -92 -7z"/>
 <path d="M3587 3463 c-4 -3 -7 -17 -7 -29 0 -24 4 -26 80 -38 90 -15 150 -93 157 -204 3 -39 -6 -156 -21 -280 -29 -240 -30 -252 -16 -304 15 -51 53 -94 112 -124 l50 -25 -51 -25 c-59 -30 -83 -57 -107 -121 -17 -44 -17 -54 9 -317 15 -149 27 -284 27 -299 0 -71 -83 -160 -159 -172 -81 -13 -82 -14 -79 -43 3 -27 3 -27 78 -25 180 4 292 100 320 277 8 51 6 110 -10 278 -11 117 -20 231 -20 253 0 90 56 140 172 153 59 7 63 9 66 34 3 22 -2 30 -23 38 -14 5 -41 10 -58 10 -47 0 -117 41 -141 83 l-21 35 23 299 c23 303 23 324 -11 390 -34 64 -136 131 -235 152 -59 12 -125 15 -135 4z"/>
 <path d="M4570 3229 c-90 -36 -127 -146 -77 -233 58 -104 206 -108 274 -6 31 45 32 129 2 177 -38 60 -130 89 -199 62z"/>
 <path d="M1998 2944 c-144 -34 -242 -121 -264 -233 -4 -20 -2 -31 5 -31 6 0 11 9 11 20 0 35 41 109 78 141 123 109 325 129 482 49 53 -27 116 -95 136 -145 24 -64 16 -171 -15 -217 -51 -74 -116 -99 -321 -123 -148 -17 -197 -28 -250 -55 -77 -40 -120 -116 -120 -213 0 -81 19 -126 80 -188 79 -81 140 -103 285 -103 100 -1 116 2 171 27 34 16 78 45 97 65 42 44 84 129 69 144 -6 6 -12 -3 -16 -25 -14 -77 -90 -147 -194 -182 -80 -26 -228 -18 -302 16 -119 55 -170 128 -170 244 0 117 48 183 160 220 25 8 116 24 203 35 186 24 252 46 301 100 40 45 56 92 56 170 0 141 -119 257 -295 289 -74 14 -116 13 -187 -5z"/>
 <path d="M764 2933 c30 -89 435 -1088 443 -1090 8 -3 147 336 399 975 29 73 48 132 42 130 -7 -3 -45 -86 -87 -186 l-75 -182 -280 2 -280 3 -75 183 c-41 100 -79 182 -83 182 -5 0 -7 -8 -4 -17z m709 -370 c4 -7 -254 -677 -264 -687 -4 -5 -269 672 -269 687 0 4 119 7 264 7 146 0 267 -3 269 -7z"/>
 <path d="M2988 2934 c-186 -45 -344 -202 -393 -391 -19 -73 -19 -203 0 -276 36 -140 157 -293 275 -350 201 -96 429 -66 589 79 49 44 131 154 131 176 0 20 -17 4 -42 -41 -38 -67 -125 -151 -196 -189 -231 -123 -508 -59 -655 151 -58 82 -85 151 -99 245 -43 300 207 592 505 592 177 0 349 -97 444 -251 20 -33 40 -59 45 -59 20 0 -51 108 -113 171 -130 132 -315 186 -491 143z"/>
 </g>
<g id="layer109" fill="#5bd9c9" stroke="none">
 <path d="M1998 2944 c-144 -34 -242 -121 -264 -233 -4 -20 -2 -31 5 -31 6 0 11 9 11 20 0 35 41 109 78 141 123 109 325 129 482 49 53 -27 116 -95 136 -145 24 -64 16 -171 -15 -217 -51 -74 -116 -99 -321 -123 -148 -17 -197 -28 -250 -55 -77 -40 -120 -116 -120 -213 0 -81 19 -126 80 -188 79 -81 140 -103 285 -103 100 -1 116 2 171 27 34 16 78 45 97 65 42 44 84 129 69 144 -6 6 -12 -3 -16 -25 -14 -77 -90 -147 -194 -182 -80 -26 -228 -18 -302 16 -119 55 -170 128 -170 244 0 117 48 183 160 220 25 8 116 24 203 35 186 24 252 46 301 100 40 45 56 92 56 170 0 141 -119 257 -295 289 -74 14 -116 13 -187 -5z"/>
 <path d="M764 2933 c30 -89 435 -1088 443 -1090 8 -3 147 336 399 975 29 73 48 132 42 130 -7 -3 -45 -86 -87 -186 l-75 -182 -280 2 -280 3 -75 183 c-41 100 -79 182 -83 182 -5 0 -7 -8 -4 -17z m709 -370 c4 -7 -254 -677 -264 -687 -4 -5 -269 672 -269 687 0 4 119 7 264 7 146 0 267 -3 269 -7z"/>
 <path d="M2988 2934 c-186 -45 -344 -202 -393 -391 -19 -73 -19 -203 0 -276 36 -140 157 -293 275 -350 201 -96 429 -66 589 79 49 44 131 154 131 176 0 20 -17 4 -42 -41 -38 -67 -125 -151 -196 -189 -231 -123 -508 -59 -655 151 -58 82 -85 151 -99 245 -43 300 207 592 505 592 177 0 349 -97 444 -251 20 -33 40 -59 45 -59 20 0 -51 108 -113 171 -130 132 -315 186 -491 143z"/>
 </g>
<g id="layer110" fill="#5ce6d5" stroke="none">
 <path d="M2023 2949 c-73 -12 -153 -50 -203 -95 -58 -53 -114 -174 -80 -174 6 0 10 10 10 22 0 38 40 106 87 148 72 63 138 84 268 85 103 0 114 -2 175 -31 36 -17 79 -43 97 -58 109 -92 112 -300 5 -371 -56 -37 -117 -53 -267 -70 -289 -33 -370 -92 -370 -270 0 -63 5 -89 22 -121 68 -127 252 -198 425 -164 75 14 126 39 177 86 40 35 87 127 75 145 -3 6 -14 -12 -24 -41 -81 -239 -527 -248 -641 -13 -45 93 -20 231 52 286 51 38 112 54 287 77 193 24 243 40 297 94 83 84 88 230 10 332 -75 99 -257 159 -402 133z"/>
 <path d="M3015 2940 c-167 -34 -315 -151 -385 -305 -97 -213 -54 -451 110 -615 129 -130 302 -184 472 -149 76 16 185 71 244 123 65 58 153 186 128 186 -5 0 -20 -21 -34 -47 -34 -66 -134 -162 -201 -196 -154 -77 -338 -76 -483 1 -65 34 -173 142 -209 209 -33 62 -67 189 -67 252 1 289 238 531 520 531 177 0 355 -104 442 -258 17 -29 33 -51 35 -48 11 11 -56 113 -108 166 -70 72 -146 115 -245 140 -80 21 -150 24 -219 10z"/>
 <path d="M979 2395 c148 -373 220 -544 230 -543 14 3 446 1077 436 1086 -7 8 -4 14 -84 -180 l-73 -178 -282 0 -281 0 -72 177 c-39 98 -76 179 -81 181 -5 1 88 -243 207 -543z m501 170 c0 -10 -263 -680 -270 -688 -6 -7 -270 660 -270 683 0 6 103 10 270 10 149 0 270 -2 270 -5z"/>
 </g>

</svg>